<svg xmlns="http://www.w3.org/2000/svg" version="1.1" xmlns:xlink="http://www.w3.org/1999/xlink" xmlns:svgjs="http://svgjs.dev/svgjs" width="100%" height="100%" viewBox="0 0 1000 600"><rect width="1000" height="600" x="0" y="0" fill="#072c50"/><g><rect width="333.3333333333333" height="333.3333333333333" rx="13.333333333333334" ry="13.333333333333334" y="239.37106856509092" fill="#209cee" transform="matrix(0.5756420602141992,0,0,0.5756420602141992,0,66.26760253801439)" x="217.14894104003906"/><path d="M328.33113587964067 331.0377417528772Q341.8103303920808 331.0377417528772 351.53879251845063 334.5247507680519Q361.23795204805424 338.0117597832266 370.5268752229315 345.1615933941731L370.5268752229315 345.1615933941731L360.183058564472 357.2049606650707Q347.31921858412153 346.4509076518848 329.5911475405861 346.4509076518848L329.5911475405861 346.4509076518848Q309.9584077072494 346.4509076518848 297.6220144686901 360.69196968024545Q285.28562123013074 374.9330317086061 285.28562123013074 405.9351790872184L285.28562123013074 405.9351790872184Q285.28562123013074 436.73220828846746 297.29968590426216 451.0904807038928Q309.34305317515975 465.419450522552 329.3860293632229 465.419450522552L329.3860293632229 465.419450522552Q340.3452005537721 465.419450522552 348.1396912935744 462.2547700718052Q355.96348463014294 459.0900896210584 363.1426208378556 453.40538584842056L363.1426208378556 453.40538584842056L372.63666219009605 465.21433234518884Q356.37372098486935 481.03773459892284 329.15160858909354 481.03773459892284L329.15160858909354 481.03773459892284Q311.21841936819493 481.03773459892284 296.8894495495357 472.2762581658368Q282.5311771341104 463.54408432951686 274.29714744281546 446.66578859220056Q266.0924203482866 429.7874928548842 266.0924203482866 405.9351790872184L266.0924203482866 405.9351790872184Q266.0924203482866 382.317286093682 274.41435782988015 365.32177996930096Q282.7362953114736 348.3262738449199 296.97735733983427 339.68200779889855Q311.21841936819493 331.0377417528772 328.33113587964067 331.0377417528772L328.33113587964067 331.0377417528772ZM470.9468743406105 441.5964393516524L413.337969098312 441.5964393516524L401.734140778907 478.7228294543951L383.5958333806452 478.7228294543951L431.06604014184745 333.35264689740495L454.27369678065736 333.35264689740495L501.53878536449633 478.7228294543951L482.5507026600154 478.7228294543951L470.9468743406105 441.5964393516524ZM418.20220016149693 426.38839163000796L466.0826432774256 426.38839163000796L442.25963210652594 348.97093097377575L418.20220016149693 426.38839163000796Z " fill="#072c50" transform="matrix(0.5756420602141992,0,0,0.5756420602141992,0,66.26760253801439)"/><path d="M690.1850293110163 344.9974008755744Q702.3930971526934 344.9974008755744 711.2041374210343 348.1555749476604Q719.9886384114584 351.3137490197464 728.401589511049 357.7893328314186L728.401589511049 357.7893328314186L719.0332244064575 368.69697605517797Q707.382481401031 358.95706105975296 691.326218261434 358.95706105975296L691.326218261434 358.95706105975296Q673.5449020572521 358.95706105975296 662.3718660543258 371.855150127264Q651.1988300513996 384.753239194775 651.1988300513996 412.83179523063234L651.1988300513996 412.83179523063234Q651.1988300513996 440.72457632107285 662.0799339972423 453.72882250025066Q672.9875772210016 466.7065294015118 691.1404433160171 466.7065294015118L691.1404433160171 466.7065294015118Q701.0661332568588 466.7065294015118 708.1255811826983 463.8402873865093Q715.2115683864542 460.97404537150686 721.7136914760432 455.8254254556691L721.7136914760432 455.8254254556691L730.3124175210505 466.5207544560949Q715.583118277288 480.8519645311072 690.9281290926835 480.8519645311072L690.9281290926835 480.8519645311072Q674.6860910076697 480.8519645311072 661.7083841064086 472.91672043401707Q648.7041379272307 465.00801561484366 641.2466008326411 449.72139153483056Q633.815603015968 434.43476745481746 633.815603015968 412.83179523063234L633.815603015968 412.83179523063234Q633.815603015968 391.44113722978074 641.3527579443078 376.0483560381009Q648.8899128726476 360.6555748464211 661.7880019401587 352.8264878609977Q674.6860910076697 344.9974008755744 690.1850293110163 344.9974008755744L690.1850293110163 344.9974008755744ZM827.7646460311339 456.78083946066994Q827.7646460311339 462.6990984360917 829.6754740411355 465.48572261734404Q831.5863020511372 468.2458075206797 835.9652829073909 469.57277141651423L835.9652829073909 469.57277141651423L831.9578519419708 481.03773947652405Q817.2550919761248 479.1269114665224 813.6192109015385 466.7065294015118L813.6192109015385 466.7065294015118Q808.2582767623672 473.60674165985097 800.1372577198603 477.2160834565208Q792.0162386773533 480.8519645311072 782.0905487365116 480.8519645311072L782.0905487365116 480.8519645311072Q766.9896996019153 480.8519645311072 758.2848164452412 472.4390134315166Q749.6064725664837 464.0526016098428 749.6064725664837 449.9071664802474L749.6064725664837 449.9071664802474Q749.6064725664837 434.43476745481746 761.7349225744108 426.021816355227Q773.8633725823378 417.60886525563643 796.6075337569406 417.60886525563643L796.6075337569406 417.60886525563643L811.52260794612 417.60886525563643L811.52260794612 409.3816891014627Q811.52260794612 398.68636010103694 805.3920347473647 394.0154471876996Q799.2880008265262 389.3179949964456 787.6372578210995 389.3179949964456L787.6372578210995 389.3179949964456Q776.1722897610898 389.3179949964456 761.4429905173272 394.4931541902L761.4429905173272 394.4931541902L757.0640096610734 382.2585470706062Q774.8187865873386 375.9421989264341 790.1054106673517 375.9421989264341L790.1054106673517 375.9421989264341Q808.4440517077841 375.9421989264341 818.1043488694589 384.5409249714415Q827.7646460311339 393.13965101644885 827.7646460311339 408.42627509646195L827.7646460311339 408.42627509646195L827.7646460311339 456.78083946066994ZM786.0979797019316 468.82967163484693Q793.5555167965214 468.82967163484693 800.3230326652771 465.00801561484366Q807.1170878119495 461.1863595948404 811.52260794612 454.49846155983465L811.52260794612 454.49846155983465L811.52260794612 428.7022834248126L796.9790836477742 428.7022834248126Q780.9493597860939 428.7022834248126 773.8633725823378 434.0366782860672Q766.8039246564985 439.39761242523844 766.8039246564985 449.72139153483056L766.8039246564985 449.72139153483056Q766.8039246564985 468.82967163484693 786.0979797019316 468.82967163484693L786.0979797019316 468.82967163484693ZM938.1945814424784 375.9421989264341Q944.3251546412336 375.9421989264341 952.3400165720738 378.06534115976933L952.3400165720738 378.06534115976933L950.0576386712386 412.2479311164652L937.0533924920607 412.2479311164652L937.0533924920607 390.67149817019674L936.0979784870599 390.67149817019674Q912.7964924762066 390.67149817019674 903.030038202865 423.9252133998085L903.030038202865 423.9252133998085L903.030038202865 466.33497951067807L923.4918214766325 466.33497951067807L923.4918214766325 478.75536157568877L871.1298261470043 478.75536157568877L871.1298261470043 466.33497951067807L887.0003143411845 466.33497951067807L887.0003143411845 390.4857232247799L871.1298261470043 390.4857232247799L871.1298261470043 378.06534115976933L899.0226072374448 378.06534115976933L902.0746241978642 401.95069128478974Q908.2051973966194 388.94644510561193 916.69776632996 382.444322016023Q925.2168745412172 375.9421989264341 938.1945814424784 375.9421989264341L938.1945814424784 375.9421989264341ZM1064.8930942167535 473.60674165985097Q1059.717935022999 477.03030851110395 1052.366555040076 478.9411365211056Q1045.015175057153 480.8519645311072 1037.7434129079802 480.8519645311072L1037.7434129079802 480.8519645311072Q1021.8994639917165 480.8519645311072 1012.9026487779589 472.5451705431834Q1003.9323728421178 464.2383765552596 1003.9323728421178 450.6768055398314L1003.9323728421178 450.6768055398314L1003.9323728421178 390.67149817019674L980.8166617766814 390.67149817019674L980.8166617766814 378.06534115976933L1003.9323728421178 378.06534115976933L1003.9323728421178 355.3211799851665L1019.988635981715 353.4103519751649L1019.988635981715 378.06534115976933L1054.940864997995 378.06534115976933L1052.8442620425762 390.67149817019674L1019.988635981715 390.67149817019674L1019.988635981715 450.46449131649786Q1019.988635981715 459.0632173615052 1024.5799310613022 463.28296255025884Q1029.1446868629728 467.47616846109577 1039.282691027148 467.47616846109577L1039.282691027148 467.47616846109577Q1049.6064701367404 467.47616846109577 1058.5767460725813 462.6990984360917L1058.5767460725813 462.6990984360917L1064.8930942167535 473.60674165985097ZM1137.690333542232 331.03774069139575Q1143.0512676814035 331.03774069139575 1146.2890595872395 334.19591476348177Q1149.5268514930758 337.35408883556784 1149.5268514930758 342.3169338059887L1149.5268514930758 342.3169338059887Q1149.5268514930758 347.27977877640967 1146.2890595872395 350.4379528484957Q1143.0512676814035 353.5961269205817 1137.690333542232 353.5961269205817L1137.690333542232 353.5961269205817Q1132.5417136263945 353.5961269205817 1129.3835395543085 350.4379528484957Q1126.2253654822225 347.27977877640967 1126.2253654822225 342.3169338059887L1126.2253654822225 342.3169338059887Q1126.2253654822225 337.35408883556784 1129.3835395543085 334.19591476348177Q1132.5417136263945 331.03774069139575 1137.690333542232 331.03774069139575L1137.690333542232 331.03774069139575ZM1150.4822654980765 378.06534115976933L1150.4822654980765 465.9634296198444L1178.7731357572675 465.9634296198444L1178.7731357572675 478.75536157568877L1103.4812043076197 478.75536157568877L1103.4812043076197 465.9634296198444L1134.4525416363963 465.9634296198444L1134.4525416363963 390.85727311561357L1104.4366183126203 390.85727311561357L1104.4366183126203 378.06534115976933L1150.4822654980765 378.06534115976933ZM1248.5183581223268 467.6619434065126Q1259.983326182337 467.6619434065126 1266.6712242173426 463.28296255025884Q1273.3591222523482 458.8774424160884 1273.3591222523482 451.6322195448322L1273.3591222523482 451.6322195448322Q1273.3591222523482 446.6428352964946 1271.6340691877635 443.51120050232527Q1269.9090161231784 440.3530264302392 1264.7603962073408 437.77871647232035Q1259.6117762915032 435.1778672364848 1249.102222236494 432.5239394448159L1249.102222236494 432.5239394448159Q1231.506680977729 428.11841931064544 1223.0937298781387 421.9082282781401Q1214.7073180564648 415.6980372456348 1214.7073180564648 403.46343012604103L1214.7073180564648 403.46343012604103Q1214.7073180564648 390.85727311561357 1225.2168721114738 383.39973602102384Q1235.7264261664827 375.9421989264341 1252.9238782564976 375.9421989264341L1252.9238782564976 375.9421989264341Q1273.9429863665155 375.9421989264341 1289.6011603373622 387.0356170956103L1289.6011603373622 387.0356170956103L1282.3293981881893 398.12903526478647Q1276.0395893219338 393.723515130616 1269.165916341511 391.334980118114Q1262.2657040831723 388.94644510561193 1253.2954281473312 388.94644510561193L1253.2954281473312 388.94644510561193Q1231.506680977729 388.94644510561193 1231.506680977729 402.13646623020657L1231.506680977729 402.13646623020657Q1231.506680977729 406.7277613097938 1233.895215990231 409.59400332479623Q1236.2837510027332 412.4602453397987 1241.7243029756546 414.63646612896724Q1247.1913942264923 416.83922619605244 1258.0724981723351 419.8912431564717L1258.0724981723351 419.8912431564717Q1274.5003112027657 424.29676329064216 1282.621330245273 431.0908184373146Q1290.7423492877797 437.85833430607045 1290.7423492877797 450.8625804852482L1290.7423492877797 450.8625804852482Q1290.7423492877797 465.9634296198444 1278.5077421681858 473.3944274365175Q1266.299674326509 480.8519645311072 1248.5183581223268 480.8519645311072L1248.5183581223268 480.8519645311072Q1224.8187829427234 480.8519645311072 1209.1606089718766 467.29039351567894L1209.1606089718766 467.29039351567894L1218.1308849077177 456.78083946066994Q1224.2614581064731 461.74368443109086 1232.0905450918963 464.71608355776004Q1239.9196320773196 467.6619434065126 1248.5183581223268 467.6619434065126L1248.5183581223268 467.6619434065126ZM1401.0130490316242 456.78083946066994Q1401.0130490316242 462.6990984360917 1402.9238770416255 465.48572261734404Q1404.8347050516272 468.2458075206797 1409.213685907881 469.57277141651423L1409.213685907881 469.57277141651423L1405.2062549424609 481.03773947652405Q1390.503494976615 479.1269114665224 1386.8676139020286 466.7065294015118L1386.8676139020286 466.7065294015118Q1381.5066797628574 473.60674165985097 1373.3856607203502 477.2160834565208Q1365.2646416778434 480.8519645311072 1355.3389517370015 480.8519645311072L1355.3389517370015 480.8519645311072Q1340.2381026024054 480.8519645311072 1331.5332194457314 472.4390134315166Q1322.854875566974 464.0526016098428 1322.854875566974 449.9071664802474L1322.854875566974 449.9071664802474Q1322.854875566974 434.43476745481746 1334.9833255749008 426.021816355227Q1347.1117755828277 417.60886525563643 1369.8559367574308 417.60886525563643L1369.8559367574308 417.60886525563643L1384.7710109466102 417.60886525563643L1384.7710109466102 409.3816891014627Q1384.7710109466102 398.68636010103694 1378.6404377478548 394.0154471876996Q1372.5364038270163 389.3179949964456 1360.8856608215897 389.3179949964456L1360.8856608215897 389.3179949964456Q1349.42069276158 389.3179949964456 1334.6913935178172 394.4931541902L1334.6913935178172 394.4931541902L1330.3124126615635 382.2585470706062Q1348.067189587829 375.9421989264341 1363.3538136678417 375.9421989264341L1363.3538136678417 375.9421989264341Q1381.692454708274 375.9421989264341 1391.3527518699493 384.5409249714415Q1401.0130490316242 393.13965101644885 1401.0130490316242 408.42627509646195L1401.0130490316242 408.42627509646195L1401.0130490316242 456.78083946066994ZM1359.3463827024216 468.82967163484693Q1366.8039197970115 468.82967163484693 1373.5714356657672 465.00801561484366Q1380.3654908124395 461.1863595948404 1384.7710109466102 454.49846155983465L1384.7710109466102 454.49846155983465L1384.7710109466102 428.7022834248126L1370.2274866482644 428.7022834248126Q1354.197762786584 428.7022834248126 1347.1117755828277 434.0366782860672Q1340.0523276569884 439.39761242523844 1340.0523276569884 449.72139153483056L1340.0523276569884 449.72139153483056Q1340.0523276569884 468.82967163484693 1359.3463827024216 468.82967163484693L1359.3463827024216 468.82967163484693ZM1443.4228151424936 478.75536157568877L1443.4228151424936 378.06534115976933L1457.1701611033386 378.06534115976933L1458.5236642770901 392.18423701144803Q1464.4419232525115 384.5409249714415 1473.5183563000191 380.24156194893783Q1482.5947893475272 375.9421989264341 1491.7773795067014 375.9421989264341L1491.7773795067014 375.9421989264341Q1520.0417104879757 375.9421989264341 1520.0417104879757 405.772347304793L1520.0417104879757 405.772347304793L1520.0417104879757 478.75536157568877L1503.9854473483788 478.75536157568877L1503.9854473483788 417.60886525563643Q1503.9854473483788 406.3296721410435 1502.7646405642108 400.41141316562175Q1501.5172945021268 394.4931541902 1497.8814134275403 391.62691217519756Q1494.245532352954 388.7606701601951 1486.787995258364 388.7606701601951L1486.787995258364 388.7606701601951Q1478.5873583821071 388.7606701601951 1471.3155962329342 393.723515130616Q1464.0703733616779 398.68636010103694 1459.4790782820905 405.56003308145944L1459.4790782820905 405.56003308145944L1459.4790782820905 478.75536157568877L1443.4228151424936 478.75536157568877Z " fill="#209cee" transform="matrix(0.5756420602141992,0,0,0.5756420602141992,0,66.26760253801439)"/></g></svg>